# xmcd CD database file
#
# Track frame offsets:
#	150
#	26233
#	65464
#	79198
#	121275
#	143553
#	193598
#	213012
#	227804
#
# Disc length: 3401 seconds
#
# Revision: 0
# Processed by: cddbd v1.5.2PL0 Copyright (c) Steve Scherf et al.
# Submitted via: CDex 1.51
#
DISCID=770d4709
DTITLE=Joe Brozio Band - Riding with Eric
DYEAR=2009
DGENRE=Blues
TTITLE0=Hoochie Coohie man
TTITLE1=I shot the sheriff
TTITLE2=Before you accuse me
TTITLE3=Have you ever loved a woman
TTITLE4=Layla part 1
TTITLE5=Old love
TTITLE6=Tears in heaven
TTITLE7=Got you on my mind
TTITLE8=My father's eyes
EXTD=YEAR: 2009
EXTT0=
EXTT1=
EXTT2=
EXTT3=
EXTT4=
EXTT5=
EXTT6=
EXTT7=
EXTT8=
PLAYORDER=
